<svg width="23" height="14" viewBox="0 0 23 14" fill="none" xmlns="http://www.w3.org/2000/svg">
<path d="M22.6244 2.39736L12.4068 13.5863C12.2881 13.7174 12.1468 13.8214 11.9912 13.8924C11.8355 13.9634 11.6686 14 11.5 14C11.3314 14 11.1645 13.9634 11.0088 13.8924C10.8532 13.8214 10.7119 13.7174 10.5932 13.5863L0.375613 2.39736C0.135112 2.13399 -3.58374e-09 1.77679 0 1.40434C3.58374e-09 1.03189 0.135112 0.674686 0.375613 0.411322C0.616114 0.147957 0.942303 3.92444e-09 1.28242 0C1.62254 -3.92444e-09 1.94873 0.147957 2.18923 0.411322L11.5 10.6212L20.8108 0.411322C21.0513 0.147957 21.3775 0 21.7176 0C22.0577 0 22.3839 0.147957 22.6244 0.411322C22.8649 0.674686 23 1.03189 23 1.40434C23 1.77679 22.8649 2.13399 22.6244 2.39736Z" fill="#201600"/>
</svg>
