<svg width="40" height="39" viewBox="0 0 40 39" fill="currentColor" xmlns="http://www.w3.org/2000/svg">
<g clip-path="url(#clip0_798_2352)">
<path d="M23.8367 2.56883C23.5357 1.81041 23.0167 1.16039 22.3467 0.702538C21.6766 0.24469 20.8861 0 20.0771 0C19.268 0 18.4776 0.24469 17.8075 0.702538C17.1374 1.16039 16.6184 1.81041 16.3175 2.56883L12.9067 10.9848L12.7517 11.1022L3.77899 11.7677C3.2492 11.8036 2.73166 11.9448 2.25608 12.1833C1.78051 12.4217 1.35627 12.7527 1.00773 13.1573C0.362596 13.9068 0.00503715 14.8651 2.84424e-07 15.8582C-0.000222033 16.456 0.129888 17.0464 0.381087 17.5876C0.632287 18.1288 0.998412 18.6076 1.45346 18.9898L8.33315 24.8614V24.9984L6.24017 33.9036C6.16432 34.2375 6.12532 34.5788 6.12389 34.9214C6.11508 35.4665 6.21912 36.0075 6.42937 36.5097C6.63961 37.0119 6.95141 37.4642 7.3448 37.8376C7.99433 38.48 8.8398 38.8818 9.74394 38.9777C10.6481 39.0736 11.5578 38.8581 12.3253 38.366L20.0771 33.5709H20.2709L27.8288 38.366C28.5985 38.8556 29.5094 39.0679 30.4136 38.9684C31.3178 38.8689 32.1621 38.4635 32.8093 37.818C33.2027 37.4446 33.5145 36.9923 33.7248 36.4902C33.935 35.988 34.0391 35.447 34.0302 34.9018C34.0298 34.5657 33.9908 34.2307 33.914 33.9036L31.7047 25.0179V24.8809L38.5844 19.0093C39.0016 18.6575 39.3448 18.2249 39.5937 17.737C39.8427 17.2491 39.9924 16.7158 40.0339 16.1685C40.0754 15.6212 40.008 15.0711 39.8356 14.5505C39.6632 14.03 39.3893 13.5496 39.0301 13.1377C38.6816 12.7332 38.2574 12.4022 37.7818 12.1637C37.3062 11.9252 36.7887 11.784 36.2589 11.7481L27.2862 11.0827L27.1312 10.9652L23.8367 2.56883ZM29.2048 21.8668C28.7563 22.2535 28.3959 22.7336 28.1484 23.2741C27.9009 23.8146 27.772 24.4028 27.7707 24.9984C27.7699 25.3281 27.8089 25.6568 27.887 25.977L30.0187 34.7452V34.8431H29.8637H29.7668L22.1313 30.0479C21.4828 29.6506 20.7387 29.4405 19.9802 29.4405C19.2216 29.4405 18.4776 29.6506 17.8291 30.0479L10.3874 35.0388H10.2323V34.9409L12.3834 26.0944C12.4615 25.7742 12.5005 25.4456 12.4997 25.1158C12.4984 24.5203 12.3695 23.9321 12.122 23.3915C11.8745 22.851 11.5141 22.3709 11.0656 21.9843L4.18595 16.1127V15.9757V15.8387H4.30223L13.2943 15.1732C14.0469 15.1158 14.7686 14.8472 15.3782 14.3976C15.9877 13.9481 16.4607 13.3354 16.7438 12.6288L19.9027 4.11502V4.01716H20.1352V4.11502L23.546 12.531C23.8291 13.2376 24.3021 13.8502 24.9116 14.2998C25.5211 14.7493 26.2429 15.018 26.9955 15.0754L35.9876 15.7408H36.1038V15.8778V16.0148L29.2048 21.8668Z" fill="current"/>
<path d="M18.5993 3.8623C18.8611 3.0924 19.8835 2.94029 20.3581 3.60063L27.122 13.012C27.2721 13.2209 27.4971 13.3639 27.75 13.4113L37.849 15.3025C38.627 15.4482 38.9354 16.3972 38.3916 16.9724L31.3836 24.3849C31.1773 24.6031 31.0799 24.9026 31.1186 25.2005L32.4312 35.3165C32.5331 36.1015 31.7258 36.688 31.0107 36.3486L21.7632 31.9589C21.5105 31.8389 21.2191 31.8303 20.9597 31.9351L9.99962 36.3647C9.22632 36.6772 8.43277 35.9615 8.66415 35.1602L11.5173 25.2789C11.6155 24.9387 11.5265 24.5718 11.2832 24.3145L4.34173 16.9724C3.79792 16.3972 4.10628 15.4482 4.88432 15.3025L14.8029 13.4451C15.1578 13.3786 15.4493 13.126 15.5656 12.7841L18.5993 3.8623Z" fill="current"/>
</g>
<defs>
<clipPath id="clip0_798_2352">
<rect width="40" height="39" fill="white"/>
</clipPath>
</defs>
</svg>
