<svg width="23" height="14" viewBox="0 0 23 14" fill="none" xmlns="http://www.w3.org/2000/svg">
<path d="M0.375614 11.6026L10.5932 0.41371C10.7119 0.282619 10.8532 0.178568 11.0088 0.107562C11.1645 0.0365561 11.3314 -1.0201e-06 11.5 -1.00536e-06C11.6686 -9.90622e-07 11.8355 0.0365561 11.9912 0.107562C12.1468 0.178568 12.2881 0.282619 12.4068 0.41371L22.6244 11.6026C22.8649 11.866 23 12.2232 23 12.5957C23 12.9681 22.8649 13.3253 22.6244 13.5887C22.3839 13.852 22.0577 14 21.7176 14C21.3775 14 21.0513 13.852 20.8108 13.5887L11.5 3.37877L2.18923 13.5887C1.94873 13.852 1.62254 14 1.28242 14C0.942303 14 0.616115 13.852 0.375614 13.5887C0.135113 13.3253 -4.46231e-07 12.9681 -4.1367e-07 12.5957C-3.81109e-07 12.2232 0.135113 11.866 0.375614 11.6026Z" fill="#201600"/>
</svg>
