<svg width="88" height="88" viewBox="0 0 88 88" fill="none" xmlns="http://www.w3.org/2000/svg">
<path d="M44.3948 1C35.2729 1 26.5246 4.66184 20.0744 11.18C13.6242 17.6981 10.0006 26.5385 10.0006 35.7566C9.97893 39.0553 10.5771 42.3282 11.7633 45.4015C13.5705 49.529 15.9918 53.353 18.9431 56.7408C21.5226 59.9992 24.3602 63.388 27.1977 67.5588V74.8577C27.1977 78.3144 28.5566 81.6296 30.9754 84.0739C33.3942 86.5182 36.6748 87.8914 40.0955 87.8914H48.6941C52.1148 87.8914 55.3954 86.5182 57.8142 84.0739C60.233 81.6296 61.5919 78.3144 61.5919 74.8577V67.5588C65.4183 61.9109 69.2876 57.6966 72.5981 53.1783C74.3357 50.7704 75.7793 48.1592 76.8973 45.4015C78.1276 42.3369 78.7696 39.0637 78.789 35.7566C78.789 26.5385 75.1654 17.6981 68.7152 11.18C62.265 4.66184 53.5167 1 44.3948 1V1ZM48.6941 79.2022H40.0955C38.9553 79.2022 37.8617 78.7445 37.0555 77.9298C36.2492 77.115 35.7962 76.0099 35.7962 74.8577V70.5131H52.9933V74.8577C52.9933 76.0099 52.5404 77.115 51.7341 77.9298C50.9278 78.7445 49.8343 79.2022 48.6941 79.2022ZM69.0297 42.1865C67.5274 45.4974 65.5579 48.5706 63.1826 51.3101C60.818 54.221 57.9805 57.6532 55.057 61.824H48.6941V43.6637C51.2029 42.7673 53.376 41.1088 54.9154 38.9153C56.4548 36.7219 57.2851 34.101 57.2926 31.412C57.2926 30.2597 56.8397 29.1547 56.0334 28.3399C55.2271 27.5251 54.1336 27.0674 52.9933 27.0674C51.8531 27.0674 50.7596 27.5251 49.9533 28.3399C49.147 29.1547 48.6941 30.2597 48.6941 31.412C48.6941 32.5642 48.2411 33.6693 47.4348 34.4841C46.6286 35.2988 45.535 35.7566 44.3948 35.7566C43.2546 35.7566 42.161 35.2988 41.3547 34.4841C40.5485 33.6693 40.0955 32.5642 40.0955 31.412C40.0955 30.2597 39.6426 29.1547 38.8363 28.3399C38.03 27.5251 36.9365 27.0674 35.7962 27.0674C34.656 27.0674 33.5625 27.5251 32.7562 28.3399C31.9499 29.1547 31.497 30.2597 31.497 31.412C31.5044 34.101 32.3348 36.7219 33.8742 38.9153C35.4136 41.1088 37.5867 42.7673 40.0955 43.6637V61.824H33.6896C29.6913 56.0457 25.8219 51.7446 23.1564 48.0517C21.7841 46.2491 20.6429 44.2784 19.7599 42.1865C18.974 40.1367 18.5801 37.9548 18.5991 35.7566C18.5991 28.843 21.3169 22.2127 26.1545 17.3241C30.9921 12.4355 37.5534 9.68914 44.3948 9.68914C51.2362 9.68914 57.7975 12.4355 62.6351 17.3241C67.4727 22.2127 70.1905 28.843 70.1905 35.7566C70.2095 37.9548 69.8156 40.1367 69.0297 42.1865V42.1865Z" fill="#FBFBFC"/>
</svg>
