<svg width="141" height="141" viewBox="0 0 141 141" fill="none" xmlns="http://www.w3.org/2000/svg">
<path d="M94.706 52.944C95.8269 54.0769 96.4555 55.6063 96.4555 57.2C96.4555 58.7937 95.8269 60.323 94.706 61.456L68.106 88.056C66.9731 89.1768 65.4437 89.8055 63.85 89.8055C62.2563 89.8055 60.727 89.1768 59.594 88.056L46.294 74.756C45.3513 73.5939 44.8726 72.1238 44.9503 70.6295C45.028 69.1352 45.6565 67.7226 46.7146 66.6645C47.7726 65.6065 49.1852 64.9779 50.6795 64.9003C52.1738 64.8226 53.644 65.3013 54.806 66.244L63.85 75.3545L86.194 52.944C87.327 51.8231 88.8563 51.1945 90.45 51.1945C92.0437 51.1945 93.5731 51.8231 94.706 52.944V52.944ZM137 70.5C137 83.6524 133.1 96.5095 125.793 107.445C118.486 118.381 108.1 126.905 95.9485 131.938C83.7972 136.971 70.4263 138.288 57.5265 135.722C44.6268 133.156 32.7776 126.823 23.4774 117.523C14.1772 108.222 7.84373 96.3732 5.27781 83.4735C2.71189 70.5737 4.02881 57.2028 9.06204 45.0515C14.0953 32.9003 22.6187 22.5144 33.5546 15.2073C44.4905 7.90016 57.3476 4 70.5 4C79.2329 4 87.8803 5.72007 95.9485 9.06201C104.017 12.4039 111.348 17.3023 117.523 23.4774C123.698 29.6525 128.596 36.9834 131.938 45.0515C135.28 53.1197 137 61.7671 137 70.5V70.5ZM123.7 70.5C123.7 59.978 120.58 49.6923 114.734 40.9437C108.888 32.195 100.58 25.3762 90.8588 21.3496C81.1377 17.323 70.441 16.2695 60.1212 18.3222C49.8014 20.375 40.3221 25.4418 32.8819 32.8819C25.4418 40.3221 20.375 49.8014 18.3223 60.1212C16.2695 70.441 17.3231 81.1377 21.3496 90.8587C25.3762 100.58 32.195 108.888 40.9437 114.734C49.6924 120.58 59.9781 123.7 70.5 123.7C84.6095 123.7 98.1412 118.095 108.118 108.118C118.095 98.1411 123.7 84.6095 123.7 70.5Z" fill="#54B03C"/>
</svg>
