<svg width="88" height="88" viewBox="0 0 88 88" fill="none" xmlns="http://www.w3.org/2000/svg">
<circle cx="44.2764" cy="44.2764" r="38.2764" fill="#FBFBFC"/>
<path d="M28.0386 32.0463C27.3945 33.0101 27.0508 34.1433 27.0508 35.3025C27.0508 36.8569 27.6683 38.3477 28.7675 39.4469C29.8666 40.5461 31.3574 41.1636 32.9119 41.1636C34.0711 41.1636 35.2043 40.8198 36.1681 40.1758C37.132 39.5318 37.8832 38.6164 38.3268 37.5454C38.7704 36.4745 38.8865 35.296 38.6603 34.1591C38.4342 33.0221 37.876 31.9778 37.0563 31.1581C36.2366 30.3384 35.1922 29.7802 34.0553 29.554C32.9184 29.3279 31.7399 29.4439 30.6689 29.8876C29.598 30.3312 28.6826 31.0824 28.0386 32.0463Z" fill="#B0B0B0"/>
<path d="M61.2295 38.5587C61.8735 37.5949 62.2173 36.4617 62.2173 35.3025C62.2173 33.748 61.5998 32.2572 60.5006 31.1581C59.4014 30.0589 57.9106 29.4414 56.3562 29.4414C55.197 29.4414 54.0638 29.7852 53.0999 30.4292C52.1361 31.0732 51.3849 31.9886 50.9413 33.0596C50.4976 34.1305 50.3816 35.309 50.6077 36.4459C50.8339 37.5829 51.3921 38.6272 52.2118 39.4469C53.0315 40.2666 54.0758 40.8248 55.2127 41.051C56.3497 41.2771 57.5281 41.161 58.5991 40.7174C59.6701 40.2738 60.5855 39.5226 61.2295 38.5587Z" fill="#B0B0B0"/>
<path d="M60.7971 57.5103C60.704 57.0579 60.5227 56.6284 60.2636 56.2461H60.0291C58.3214 53.6994 56.0129 51.6124 53.3075 50.1692C50.6021 48.7261 47.583 47.9712 44.5168 47.9712C41.4506 47.9712 38.4315 48.7261 35.7261 50.1692C33.0207 51.6124 30.7122 53.6994 29.0045 56.2461C28.749 56.633 28.5727 57.0667 28.4855 57.5221C28.3983 57.9775 28.402 58.4456 28.4964 58.8995C28.5908 59.3535 28.7741 59.7843 29.0356 60.1671C29.2972 60.55 29.6319 60.8773 30.0204 61.1303C30.4033 61.3928 30.8349 61.5759 31.2897 61.6689C31.7445 61.762 32.2133 61.763 32.6685 61.6719C33.1237 61.5809 33.5561 61.3996 33.9401 61.1388C34.3242 60.8781 34.6521 60.543 34.9046 60.1535C35.9739 58.5415 37.4255 57.2192 39.1299 56.3044C40.8344 55.3897 42.7387 54.911 44.6731 54.911C46.6075 54.911 48.5118 55.3897 50.2163 56.3044C51.9207 57.2192 53.3723 58.5415 54.4416 60.1535C54.6941 60.543 55.022 60.8781 55.4061 61.1388C55.7901 61.3996 56.2225 61.5809 56.6777 61.6719C57.1329 61.763 57.6017 61.762 58.0565 61.6689C58.5113 61.5759 58.9429 61.3928 59.3258 61.1303C59.7081 60.8712 60.0356 60.5393 60.2896 60.1536C60.5436 59.7679 60.7192 59.336 60.8063 58.8824C60.8934 58.4289 60.8903 57.9626 60.7971 57.5103Z" fill="#B0B0B0"/>
</svg>
