<svg width="81" height="82" viewBox="0 0 81 82" fill="currentColor" xmlns="http://www.w3.org/2000/svg">
<path d="M40.6876 4.11719L52.6806 26.7505L76.4327 31.7662L58.7939 51.4413L60.7538 74.0746L39.1947 63.7867L19.5955 76.1321L23.5153 49.3837L7.83594 32.9232L30.888 28.808L40.6876 4.11719Z" fill="current"/>
<path d="M48.2141 5.40114C47.6053 3.8065 46.5556 2.43978 45.2002 1.47713C43.8449 0.514477 42.246 0 40.6096 0C38.9732 0 37.3742 0.514477 36.0189 1.47713C34.6635 2.43978 33.6138 3.8065 33.0051 5.40114L26.1061 23.0962L25.7926 23.3432L7.64369 24.7423C6.57211 24.8177 5.52529 25.1147 4.56334 25.6161C3.6014 26.1175 2.7433 26.8135 2.03832 27.664C0.733416 29.2399 0.0101886 31.2549 5.75299e-07 33.3429C-0.000449103 34.5997 0.262722 35.8412 0.770819 36.9791C1.27892 38.117 2.01947 39.1236 2.93988 39.9272L16.8553 52.2726V52.5607L12.6219 71.2845C12.4685 71.9865 12.3896 72.7042 12.3867 73.4244C12.3689 74.5706 12.5793 75.7081 13.0046 76.764C13.4298 77.8199 14.0605 78.7709 14.8562 79.556C16.17 80.9067 17.8801 81.7514 19.7089 81.9531C21.5377 82.1548 23.3777 81.7016 24.9302 80.6671L40.6096 70.585H41.0016L56.2889 80.6671C57.8457 81.6964 59.6882 82.1427 61.5171 81.9335C63.3461 81.7243 65.0539 80.8719 66.3629 79.5148C67.1586 78.7297 67.7893 77.7787 68.2146 76.7229C68.6398 75.667 68.8503 74.5295 68.8324 73.3833C68.8316 72.6765 68.7527 71.9722 68.5972 71.2845L64.1286 52.6018V52.3137L78.0441 39.9683C78.8879 39.2287 79.5821 38.3191 80.0856 37.2932C80.5892 36.2673 80.8919 35.146 80.9759 33.9953C81.06 32.8446 80.9236 31.6879 80.5749 30.5935C80.2262 29.499 79.6722 28.4889 78.9456 27.6229C78.2406 26.7723 77.3825 26.0763 76.4206 25.5749C75.4586 25.0735 74.4118 24.7766 73.3402 24.7012L55.1914 23.302L54.8778 23.0551L47.9789 5.35999L48.2141 5.40114ZM59.072 45.9764C58.1649 46.7894 57.436 47.7988 56.9353 48.9353C56.4346 50.0718 56.174 51.3085 56.1713 52.5607C56.1697 53.254 56.2487 53.945 56.4065 54.6182V54.6182L60.7184 73.0541V73.2598H60.4048H60.2088L44.7646 63.1777C43.4528 62.3422 41.9479 61.9004 40.4136 61.9004C38.8793 61.9004 37.3743 62.3422 36.0625 63.1777L21.0104 73.6713H20.6968V73.4656L25.0478 54.8651C25.2057 54.1919 25.2846 53.5009 25.283 52.8076C25.2803 51.5554 25.0197 50.3187 24.519 49.1822C24.0183 48.0457 23.2894 47.0363 22.3823 46.2233L8.46686 33.8779V33.5899V33.3018H8.70205L26.8901 31.9026C28.4124 31.782 29.8723 31.2172 31.1051 30.2719C32.338 29.3267 33.2947 28.0386 33.8674 26.553L40.2568 8.6521V8.44634H40.7272V8.6521L47.6261 26.3472C48.1988 27.8328 49.1555 29.1209 50.3884 30.0662C51.6212 31.0114 53.0811 31.5762 54.6034 31.6969L72.7915 33.096H73.0267V33.3841V33.6722L59.072 45.9764Z" fill="current"/>
</svg>
