<svg width="70" height="60" viewBox="0 0 70 60" fill="none" xmlns="http://www.w3.org/2000/svg">
<g clip-path="url(#clip0_611_2381)">
<path d="M51.4702 3.18213C45.782 2.87655 40.671 4.15452 37.3967 8.31904L36.7769 12.5038L41.0347 17.6346L35.9254 22.3379L40.6089 27.8962L34.7736 33.8821L37.6285 40.7232L32.945 47.5643L34.7736 57.5587C34.7736 57.5587 45.1779 50.4977 51.3364 45.3234C56.2115 41.216 66.6945 34.0057 67.3912 20.9266C67.9528 10.3846 60.7586 3.68113 51.4702 3.18213Z" fill="#FFCF53"/>
<path fill-rule="evenodd" clip-rule="evenodd" d="M35.7125 8.06975C35.7562 7.77448 35.8761 7.49584 36.0604 7.26155C39.8243 2.47423 45.6098 1.15688 51.5614 1.47662C56.5873 1.74663 61.1358 3.70306 64.3598 7.11296C67.5973 10.537 69.3959 15.319 69.0922 21.0203C68.4187 33.6619 59.1509 41.1746 53.9331 45.4044C53.3825 45.8507 52.8769 46.2605 52.4314 46.6359L52.4296 46.6374C49.2971 49.2692 45.1117 52.3598 41.7342 54.7766C40.0403 55.9886 38.5402 57.0379 37.4633 57.7844C36.9247 58.1577 36.4917 58.4555 36.1929 58.6603C36.0435 58.7626 35.9276 58.8418 35.8489 58.8955L35.7282 58.9776C35.728 58.9777 35.7275 58.9781 34.7739 57.561C34.7739 57.561 35.3503 57.1698 36.3121 56.5041C39.4365 54.3416 46.6278 49.2821 51.3367 45.3257C51.8025 44.9333 52.3195 44.5125 52.8742 44.061C58.1256 39.787 66.7613 32.7584 67.3915 20.9289C67.9531 10.3869 60.7589 3.68345 51.4705 3.18445C45.7824 2.87886 40.6713 4.15683 37.397 8.32136L36.7772 12.5061L41.035 17.6369L35.9257 22.3402L40.6092 27.8985L34.7739 33.8845L37.6288 40.7255L32.9453 47.5666L34.7739 57.561L35.7282 58.9776C35.2519 59.3008 34.6448 59.3614 34.1148 59.138C33.5848 58.9146 33.2027 58.4378 33.0988 57.8701L31.2702 47.8756C31.1888 47.4303 31.2864 46.9708 31.5419 46.5977L35.6988 40.5257L33.2032 34.5455C32.9385 33.9112 33.0778 33.1795 33.5569 32.6881L38.3076 27.8147L34.6256 23.4449C34.035 22.744 34.1009 21.6999 34.7749 21.0794L38.6866 17.4786L35.4689 13.601C35.1581 13.2265 35.0213 12.7367 35.0927 12.2545L35.7125 8.06975Z" fill="#DF9300"/>
<path fill-rule="evenodd" clip-rule="evenodd" d="M36.5553 50.5186C40.049 48.0338 44.6075 44.6929 47.9301 41.9013C48.3959 41.5089 48.9128 41.0881 49.4675 40.6367C54.7189 36.3626 63.3547 29.334 63.9849 17.5045C64.2209 13.0756 63.0879 9.32424 61.0058 6.42578C65.1738 9.45981 67.7348 14.4736 67.3911 20.925C66.7609 32.7545 58.1251 39.7831 52.8737 44.0572C52.319 44.5086 51.8021 44.9294 51.3363 45.3218C45.1777 50.4961 34.7734 57.5572 34.7734 57.5572L36.5553 50.5186Z" fill="#FDB832"/>
<path d="M20.5448 1.7004C11.2563 1.2014 3.391 7.09583 2.82939 17.6378C2.17457 29.9295 11.4051 38.579 15.9947 43.385C21.6493 49.2784 31.369 57.5555 31.369 57.5555L26.1342 46.2783L28.6888 40.2924L26.1342 34.3065L31.369 29.1757L26.9857 23.1897L32.095 18.059L29.9662 13.3557L33.9921 8.3158C31.179 3.82425 26.2329 2.00598 20.5448 1.7004Z" fill="#FFCF53"/>
<path fill-rule="evenodd" clip-rule="evenodd" d="M35.4341 7.40757C35.8205 8.02457 35.7751 8.81972 35.3209 9.38828L31.9503 13.6078L33.6458 17.3536C33.9395 18.0026 33.8016 18.7665 33.2996 19.2706L29.2248 23.3625L32.7414 28.1648C33.2445 28.8519 33.1666 29.8062 32.5589 30.4019L28.1601 34.7133L30.2545 39.621C30.4381 40.0512 30.4381 40.5382 30.2545 40.9684L27.9999 46.2513L32.9129 56.8352C33.251 57.5635 33.0386 58.43 32.4025 58.9174C31.7663 59.4049 30.8781 59.3819 30.2678 58.8622L31.3693 57.5578L26.1345 46.2806L28.6891 40.2947L26.1345 34.3088L31.3693 29.178L26.9861 23.1921L32.0953 18.0613L29.9665 13.358L33.9924 8.31811C31.1793 3.82656 26.2332 2.00829 20.5451 1.70271C11.2567 1.20371 3.3913 7.09814 2.8297 17.6401C2.21704 29.1404 10.2577 37.4524 15.0546 42.4112C15.3847 42.7524 15.6995 43.0778 15.995 43.3873C19.6102 47.1552 24.887 51.8974 28.2231 54.828C30.105 56.4812 31.3693 57.5578 31.3693 57.5578C30.2678 58.8622 30.2679 58.8623 30.2678 58.8622L30.2657 58.8604L30.1545 58.7655C30.081 58.7026 29.9729 58.61 29.8334 58.4902C29.5545 58.2506 29.1505 57.9022 28.6482 57.4661C27.6439 56.5938 26.2457 55.3694 24.6698 53.9596C21.527 51.1483 17.6431 47.5699 14.7685 44.5739L14.7658 44.571C14.4672 44.2584 14.144 43.9252 13.8009 43.5715C9.04409 38.6681 0.47455 29.8342 1.12904 17.5488C1.43276 11.8474 3.72921 7.28551 7.31193 4.22785C10.8798 1.18283 15.6102 -0.275116 20.6361 -0.00511225C26.5877 0.314625 32.2003 2.24431 35.4341 7.40757Z" fill="#DF9300"/>
<path fill-rule="evenodd" clip-rule="evenodd" d="M27.7503 54.4152L23.5781 45.4273L26.1328 39.4413L23.5781 33.4554L28.8129 28.3246L24.4297 22.3387L29.5389 17.2079L27.4101 12.5047L31.4361 7.46473C29.9484 5.08949 27.8643 3.46184 25.3893 2.41016C28.9873 3.32952 32.015 5.16541 33.9907 8.31987L29.9647 13.3598L32.0936 18.063L26.9843 23.1938L31.3676 29.1797L26.1328 34.3105L28.6874 40.2965L26.1328 46.2824L31.3676 57.5596C31.3676 57.5596 29.8892 56.3007 27.7503 54.4152Z" fill="#FDB832"/>
<path d="M49.1688 40.7048C49.1326 42.0978 47.9788 43.1976 46.5916 43.1612C45.2044 43.1249 44.1092 41.9661 44.1454 40.5731C44.1816 39.1801 45.3355 38.0803 46.7227 38.1166C48.1099 38.153 49.2051 39.3117 49.1688 40.7048Z" fill="#ECA51B"/>
<path d="M55.4958 38.9788C55.4686 40.0235 54.6032 40.8484 53.5628 40.8211C52.5224 40.7939 51.701 39.9248 51.7282 38.88C51.7553 37.8352 52.6207 37.0104 53.6611 37.0377C54.7015 37.0649 55.5229 37.934 55.4958 38.9788Z" fill="#ECA51B"/>
<path d="M61.9684 31.5764C61.9413 32.6212 61.0759 33.446 60.0355 33.4188C58.9951 33.3915 58.1737 32.5224 58.2008 31.4777C58.228 30.4329 59.0934 29.608 60.1338 29.6353C61.1742 29.6626 61.9956 30.5316 61.9684 31.5764Z" fill="#ECA51B"/>
<path d="M64.6442 25.3303C64.6171 26.3751 63.7516 27.2 62.7112 27.1727C61.6709 27.1454 60.8495 26.2764 60.8766 25.2316C60.9038 24.1868 61.7692 23.3619 62.8096 23.3892C63.85 23.4165 64.6714 24.2855 64.6442 25.3303Z" fill="#ECA51B"/>
<path d="M43.9997 46.9944C43.9725 48.0392 43.1071 48.864 42.0667 48.8367C41.0263 48.8095 40.2049 47.9404 40.2321 46.8956C40.2592 45.8509 41.1247 45.026 42.165 45.0533C43.2054 45.0805 44.0268 45.9496 43.9997 46.9944Z" fill="#ECA51B"/>
<path d="M55.6598 32.6741C55.6327 33.7188 54.7673 34.5437 53.7269 34.5164C52.6865 34.4892 51.8651 33.6201 51.8922 32.5753C51.9194 31.5306 52.7848 30.7057 53.8252 30.733C54.8656 30.7602 55.687 31.6293 55.6598 32.6741Z" fill="#ECA51B"/>
<path d="M63.5375 19.6278C63.5194 20.3243 62.9425 20.8742 62.2489 20.856C61.5553 20.8378 61.0077 20.2585 61.0258 19.5619C61.0439 18.8654 61.6209 18.3155 62.3145 18.3337C63.0081 18.3519 63.5557 18.9313 63.5375 19.6278Z" fill="#ECA51B"/>
<path d="M58.354 25.7996C58.3359 26.4962 57.7589 27.0461 57.0653 27.0279C56.3717 27.0097 55.8241 26.4303 55.8422 25.7338C55.8603 25.0373 56.4373 24.4874 57.1309 24.5056C57.8245 24.5238 58.3721 25.1031 58.354 25.7996Z" fill="#ECA51B"/>
<path d="M23.7375 22.136C20.1599 27.3239 13.7916 29.1179 9.5135 26.1428C5.23536 23.1678 4.66741 16.5504 8.24495 11.3624C11.8225 6.17443 18.1908 4.38049 22.4689 7.35553C26.747 10.3306 27.315 16.948 23.7375 22.136Z" fill="#FFDD84"/>
<path fill-rule="evenodd" clip-rule="evenodd" d="M14.75 9.85659C15.3317 10.5989 15.2041 11.6741 14.4649 12.2583C13.2694 13.203 12.3612 14.3074 11.717 15.5757C11.2897 16.4171 10.264 16.7513 9.42607 16.3221C8.58818 15.893 8.25538 14.8629 8.68274 14.0215C9.56151 12.2914 10.7945 10.8062 12.3584 9.57025C13.0976 8.98612 14.1684 9.11431 14.75 9.85659Z" fill="white"/>
</g>
<defs>
<clipPath id="clip0_611_2381">
<rect width="70" height="60" fill="white"/>
</clipPath>
</defs>
</svg>
