<svg width="84" height="84" viewBox="0 0 84 84" fill="none" xmlns="http://www.w3.org/2000/svg">
<path d="M42 0C33.6932 0 25.5729 2.46326 18.6661 7.07828C11.7592 11.6933 6.37596 18.2528 3.19708 25.9273C0.0181979 33.6018 -0.813542 42.0466 0.807037 50.1938C2.42762 58.341 6.42773 65.8247 12.3015 71.6985C18.1753 77.5723 25.659 81.5724 33.8062 83.193C41.9534 84.8136 50.3982 83.9818 58.0727 80.8029C65.7472 77.6241 72.3067 72.2408 76.9217 65.3339C81.5367 58.4271 84 50.3068 84 42C84 36.4845 82.9136 31.023 80.8029 25.9273C78.6923 20.8316 75.5985 16.2016 71.6985 12.3015C67.7984 8.40145 63.1684 5.30776 58.0727 3.19706C52.977 1.08636 47.5155 0 42 0ZM42 75.6C35.3546 75.6 28.8583 73.6294 23.3329 69.9374C17.8074 66.2454 13.5008 60.9977 10.9577 54.8582C8.41456 48.7186 7.74917 41.9627 9.04563 35.445C10.3421 28.9272 13.5422 22.9403 18.2412 18.2412C22.9403 13.5422 28.9272 10.3421 35.445 9.04561C41.9627 7.74915 48.7186 8.41454 54.8582 10.9576C60.9978 13.5008 66.2454 17.8073 69.9374 23.3328C73.6294 28.8583 75.6 35.3545 75.6 42C75.6 50.9113 72.06 59.4576 65.7588 65.7588C59.4576 72.06 50.9113 75.6 42 75.6ZM54.6 35.532L47.922 42L54.6 48.468C55.4132 49.2811 55.87 50.384 55.87 51.534C55.87 52.684 55.4132 53.7868 54.6 54.6C53.7869 55.4131 52.684 55.87 51.534 55.87C50.384 55.87 49.2812 55.4131 48.468 54.6L42 47.922L35.532 54.6C34.7189 55.4131 33.616 55.87 32.466 55.87C31.316 55.87 30.2132 55.4131 29.4 54.6C28.5869 53.7868 28.13 52.684 28.13 51.534C28.13 50.384 28.5869 49.2811 29.4 48.468L36.078 42L29.4 35.532C28.5869 34.7188 28.13 33.616 28.13 32.466C28.13 31.316 28.5869 30.2131 29.4 29.4C30.2132 28.5868 31.316 28.13 32.466 28.13C33.616 28.13 34.7189 28.5868 35.532 29.4L42 36.078L48.468 29.4C49.2812 28.5868 50.384 28.13 51.534 28.13C52.684 28.13 53.7869 28.5868 54.6 29.4C55.4132 30.2131 55.87 31.316 55.87 32.466C55.87 33.616 55.4132 34.7188 54.6 35.532Z" fill="white" fill-opacity="current"/>
</svg>
