<svg width="70" height="60" viewBox="0 0 70 60" fill="none" xmlns="http://www.w3.org/2000/svg">
<g clip-path="url(#clip0_611_2380)">
<path d="M22.7885 2.63465C13.6243 2.14823 5.86424 7.89407 5.31015 18.1703C4.66409 30.1522 13.771 38.5836 18.2992 43.2684C23.8782 49.0133 33.4678 57.0817 33.4678 57.0817C33.4678 57.0817 43.7328 50.1987 49.809 45.1548C54.6188 41.151 64.9615 34.1224 65.6489 21.373C66.203 11.0968 59.105 4.5623 49.9409 4.07588C44.3289 3.778 39.2863 5.02375 36.0558 9.08329C33.2804 4.70496 28.4004 2.93253 22.7885 2.63465Z" fill="#F34752"/>
<path fill-rule="evenodd" clip-rule="evenodd" d="M33.47 57.0817C33.47 57.0817 23.8804 49.0132 18.3014 43.2683C18.0099 42.9667 17.6993 42.6495 17.3736 42.3169C12.6409 37.4831 4.70789 29.3806 5.31235 18.1703C5.86644 7.894 13.6265 2.14816 22.7907 2.63458C27.7658 2.89866 32.1656 4.32163 35.0339 7.69176C35.401 8.12313 35.7431 8.5864 36.058 9.08322C36.4246 8.62257 36.8145 8.19816 37.2259 7.80811C40.4402 4.76083 44.9679 3.81173 49.9431 4.0758C59.1072 4.56223 66.2052 11.0967 65.6511 21.373C65.0293 32.9043 56.5091 39.7557 51.328 43.922C50.7807 44.3621 50.2707 44.7722 49.8112 45.1547C43.735 50.1986 33.47 57.0817 33.47 57.0817ZM36.1986 6.47655C39.8612 3.0914 44.884 2.13774 50.0329 2.41103C54.9915 2.67423 59.4791 4.58134 62.66 7.90529C65.854 11.243 67.6286 15.9044 67.329 21.462C66.6645 33.785 57.5208 41.1083 52.3727 45.2314C51.8295 45.6665 51.3308 46.066 50.8912 46.4319L50.8894 46.4334C47.7988 48.9989 43.6694 52.0115 40.3371 54.3674C38.6659 55.5489 37.1859 56.5717 36.1234 57.2994C35.592 57.6633 35.1648 57.9536 34.87 58.1532C34.7226 58.253 34.6083 58.3301 34.5306 58.3824L34.4115 58.4625C34.4114 58.4626 34.4108 58.463 33.47 57.0817C32.3832 58.3532 32.3831 58.3531 32.383 58.353L32.2715 58.2589C32.1989 58.1976 32.0922 58.1073 31.9547 57.9905C31.6795 57.757 31.2809 57.4174 30.7853 56.9922C29.7944 56.142 28.415 54.9484 26.8601 53.5742C23.7595 50.8338 19.9275 47.3456 17.0914 44.4251L17.0887 44.4223C16.7941 44.1175 16.4752 43.7927 16.1367 43.4479C11.4436 38.6681 2.98872 30.057 3.63445 18.0812C3.93411 12.5236 6.19982 8.07665 9.73459 5.09606C13.2547 2.1278 17.9218 0.706611 22.8804 0.969808C28.0292 1.2431 32.9209 2.72301 36.1986 6.47655ZM32.383 58.353L33.47 57.0817L34.4115 58.4625C33.7872 58.8811 32.9577 58.8365 32.383 58.353Z" fill="#AE1E2F"/>
<path fill-rule="evenodd" clip-rule="evenodd" d="M6.16532 25.6163C8.77159 30.5325 12.5551 34.3968 15.2787 37.1786C15.6044 37.5112 15.915 37.8284 16.2065 38.1301C21.7854 43.875 31.3751 51.9434 31.3751 51.9434C31.3751 51.9434 41.6401 45.0604 47.7163 40.0165C48.1758 39.6339 48.6858 39.2238 49.2331 38.7837C54.4142 34.6174 62.9344 27.766 63.5562 16.2347C63.6515 14.4664 63.5203 12.809 63.191 11.274C64.9378 13.9937 65.865 17.4042 65.651 21.3728C65.0293 32.9041 56.5091 39.7555 51.328 43.9218C50.7807 44.3619 50.2707 44.772 49.8111 45.1546C43.735 50.1985 33.4699 57.0815 33.4699 57.0815C33.4699 57.0815 23.8803 49.0131 18.3014 43.2682C18.0098 42.9665 17.6993 42.6494 17.3736 42.3167C13.7628 38.6288 8.28905 33.0382 6.16532 25.6163Z" fill="#DD2D37"/>
<path d="M43.92 41.3909C43.8051 42.7445 42.6061 43.7494 41.2418 43.6355C39.8775 43.5215 38.8647 42.3318 38.9795 40.9782C39.0944 39.6246 40.2935 38.6197 41.6577 38.7337C43.022 38.8476 44.0348 40.0373 43.92 41.3909Z" fill="#C82A2A"/>
<path d="M50.2525 40.0656C50.1663 41.0808 49.267 41.8345 48.2438 41.7491C47.2206 41.6636 46.461 40.7713 46.5472 39.7561C46.6333 38.7409 47.5326 37.9873 48.5558 38.0727C49.579 38.1582 50.3386 39.0505 50.2525 40.0656Z" fill="#C82A2A"/>
<path d="M57.0533 33.2336C56.9671 34.2488 56.0678 35.0025 55.0446 34.917C54.0214 34.8316 53.2618 33.9393 53.3479 32.9241C53.4341 31.9089 54.3334 31.1552 55.3566 31.2407C56.3798 31.3262 57.1394 32.2184 57.0533 33.2336Z" fill="#C82A2A"/>
<path d="M60.0415 27.3117C59.9554 28.3269 59.0561 29.0806 58.0329 28.9952C57.0097 28.9097 56.2501 28.0174 56.3362 27.0022C56.4224 25.987 57.3217 25.2333 58.3449 25.3188C59.3681 25.4043 60.1277 26.2965 60.0415 27.3117Z" fill="#C82A2A"/>
<path d="M38.5142 46.4914C38.4281 47.5066 37.5288 48.2603 36.5056 48.1748C35.4824 48.0894 34.7227 47.1971 34.8089 46.1819C34.895 45.1667 35.7943 44.413 36.8175 44.4985C37.8407 44.584 38.6003 45.4762 38.5142 46.4914Z" fill="#C82A2A"/>
<path d="M50.772 33.9446C50.6859 34.9597 49.7866 35.7134 48.7634 35.628C47.7402 35.5425 46.9805 34.6502 47.0667 33.635C47.1528 32.6199 48.0521 31.8662 49.0753 31.9516C50.0985 32.0371 50.8582 32.9294 50.772 33.9446Z" fill="#C82A2A"/>
<path d="M33.417 47.9162C33.3596 48.593 32.7601 49.0954 32.0779 49.0384C31.3958 48.9815 30.8894 48.3866 30.9468 47.7098C31.0042 47.033 31.6038 46.5306 32.2859 46.5875C32.968 46.6445 33.4744 47.2394 33.417 47.9162Z" fill="#C82A2A"/>
<path d="M59.2764 21.6935C59.219 22.3703 58.6194 22.8728 57.9373 22.8158C57.2552 22.7588 56.7487 22.164 56.8062 21.4872C56.8636 20.8104 57.4631 20.3079 58.1453 20.3649C58.8274 20.4219 59.3338 21.0167 59.2764 21.6935Z" fill="#C82A2A"/>
<path d="M53.8155 27.4044C53.758 28.0812 53.1585 28.5837 52.4764 28.5267C51.7942 28.4697 51.2878 27.8749 51.3452 27.1981C51.4027 26.5213 52.0022 26.0188 52.6843 26.0758C53.3665 26.1328 53.8729 26.7276 53.8155 27.4044Z" fill="#C82A2A"/>
<path d="M27.6168 22.5534C24.0872 27.6105 17.8041 29.3593 13.5832 26.4592C9.36234 23.5592 8.80199 17.1086 12.3316 12.0514C15.8613 6.99419 22.1444 5.24548 26.3652 8.14552C30.5861 11.0456 31.1465 17.4962 27.6168 22.5534Z" fill="#FF6F77"/>
<path fill-rule="evenodd" clip-rule="evenodd" d="M18.7514 10.5807C19.3253 11.3043 19.1993 12.3524 18.4701 12.9218C17.2906 13.8428 16.3945 14.9193 15.759 16.1556C15.3373 16.9758 14.3254 17.3016 13.4987 16.8832C12.672 16.4649 12.3437 15.4608 12.7653 14.6406C13.6323 12.9541 14.8488 11.5064 16.3918 10.3016C17.1211 9.73216 18.1775 9.85713 18.7514 10.5807Z" fill="white"/>
</g>
<defs>
<clipPath id="clip0_611_2380">
<rect width="70" height="60" fill="white"/>
</clipPath>
</defs>
</svg>
